ffmpeg version 6.0 Copyright (c) 2000-2023 the FFmpeg developers
  built with Apple clang version 13.0.0 (clang-1300.0.29.30)
  configuration: --prefix=/usr/local/Cellar/ffmpeg/6.0 --enable-shared --enable-pthreads --enable-version3 --cc=clang --host-cflags= --host-ldflags= --enable-ffplay --enable-gnutls --enable-gpl --enable-libaom --enable-libaribb24 --enable-libbluray --enable-libdav1d --enable-libmp3lame --enable-libopus --enable-librav1e --enable-librist --enable-librubberband --enable-libsnappy --enable-libsrt --enable-libsvtav1 --enable-libtesseract --enable-libtheora --enable-libvidstab --enable-libvmaf --enable-libvorbis --enable-libvpx --enable-libwebp --enable-libx264 --enable-libx265 --enable-libxml2 --enable-libxvid --enable-lzma --enable-libfontconfig --enable-libfreetype --enable-frei0r --enable-libass --enable-libopencore-amrnb --enable-libopencore-amrwb --enable-libopenjpeg --enable-libspeex --enable-libsoxr --enable-libzmq --enable-libzimg --disable-libjack --disable-indev=jack --enable-videotoolbox
  libavutil      58.  2.100 / 58.  2.100
  libavcodec     60.  3.100 / 60.  3.100
  libavformat    60.  3.100 / 60.  3.100
  libavdevice    60.  1.100 / 60.  1.100
  libavfilter     9.  3.100 /  9.  3.100
  libswscale      7.  1.100 /  7.  1.100
  libswresample   4. 10.100 /  4. 10.100
  libpostproc    57.  1.100 / 57.  1.100
Input #0, flv, from 'rtmp://localhost/live/livestream':
  Metadata:
    |RtmpSampleAccess: true
  Duration: N/A, start: 0.000000, bitrate: N/A
  Stream #0:0: Data: none
  Stream #0:1: Audio: aac (LC), 48000 Hz, stereo, fltp
  Stream #0:2: Video: h264 (Constrained Baseline), yuv420p(progressive), 320x240, 14.92 fps, 14.92 tbr, 1k tbn
Output #0, flv, to 'rtmp://167.88.168.20:1935/live/test':
  Metadata:
    |RtmpSampleAccess: true
    encoder         : Lavf60.3.100
  Stream #0:0: Video: h264 (Constrained Baseline) ([7][0][0][0] / 0x0007), yuv420p(progressive), 320x240, q=2-31, 14.92 fps, 14.92 tbr, 1k tbn
  Stream #0:1: Audio: aac (LC) ([10][0][0][0] / 0x000A), 48000 Hz, stereo, fltp
Stream mapping:
  Stream #0:2 -> #0:0 (copy)
  Stream #0:1 -> #0:1 (copy)
Press [q] to stop, [?] for help
frame=    0 fps=0.0 q=-1.0 size=       0kB time=-577014:32:22.77 bitrate=  -0.0kbits/s speed=N/A    frame=   57 fps=0.0 q=-1.0 size=     214kB time=00:00:03.99 bitrate= 439.1kbits/s speed=6.05x    frame=   68 fps= 49 q=-1.0 size=     257kB time=00:00:04.73 bitrate= 443.8kbits/s speed=3.43x    frame=   79 fps= 38 q=-1.0 size=     303kB time=00:00:05.45 bitrate= 455.4kbits/s speed= 2.6x    frame=   89 fps= 32 q=-1.0 size=     342kB time=00:00:06.15 bitrate= 455.5kbits/s speed=2.18x    frame=  100 fps= 28 q=-1.0 size=     390kB time=00:00:06.87 bitrate= 464.7kbits/s speed=1.94x    frame=  111 fps= 26 q=-1.0 size=     427kB time=00:00:07.59 bitrate= 460.9kbits/s speed=1.78x    frame=  122 fps= 24 q=-1.0 size=     470kB time=00:00:08.33 bitrate= 461.5kbits/s speed=1.67x    frame=  133 fps= 23 q=-1.0 size=     502kB time=00:00:09.03 bitrate= 454.8kbits/s speed=1.59x    frame=  143 fps= 22 q=-1.0 size=     535kB time=00:00:09.75 bitrate= 448.9kbits/s speed=1.52x    frame=  154 fps= 22 q=-1.0 size=     593kB time=00:00:10.47 bitrate= 463.9kbits/s speed=1.47x    frame=  165 fps= 21 q=-1.0 size=     651kB time=00:00:11.21 bitrate= 475.8kbits/s speed=1.43x    frame=  175 fps= 20 q=-1.0 size=     705kB time=00:00:11.91 bitrate= 485.0kbits/s speed=1.39x    frame=  186 fps= 20 q=-1.0 size=     763kB time=00:00:12.63 bitrate= 494.7kbits/s speed=1.36x    frame=  197 fps= 20 q=-1.0 size=     823kB time=00:00:13.35 bitrate= 504.7kbits/s speed=1.33x    frame=  208 fps= 19 q=-1.0 size=     877kB time=00:00:14.09 bitrate= 509.8kbits/s speed=1.31x    frame=  219 fps= 19 q=-1.0 size=     915kB time=00:00:14.81 bitrate= 505.8kbits/s speed=1.29x    frame=  230 fps= 19 q=-1.0 size=     955kB time=00:00:15.51 bitrate= 504.5kbits/s speed=1.27x    frame=  240 fps= 19 q=-1.0 size=     994kB time=00:00:16.25 bitrate= 501.2kbits/s speed=1.26x    frame=  252 fps= 19 q=-1.0 size=    1028kB time=00:00:16.97 bitrate= 495.9kbits/s speed=1.25x    frame=  262 fps= 18 q=-1.0 size=    1071kB time=00:00:17.69 bitrate= 495.7kbits/s speed=1.23x    frame=  273 fps= 18 q=-1.0 size=    1118kB time=00:00:18.41 bitrate= 497.5kbits/s speed=1.22x    frame=  283 fps= 18 q=-1.0 size=    1157kB time=00:00:19.11 bitrate= 495.8kbits/s speed=1.21x    frame=  294 fps= 18 q=-1.0 size=    1201kB time=00:00:19.85 bitrate= 495.3kbits/s speed= 1.2x    frame=  305 fps= 18 q=-1.0 size=    1233kB time=00:00:20.55 bitrate= 491.2kbits/s speed=1.19x    frame=  315 fps= 18 q=-1.0 size=    1249kB time=00:00:21.27 bitrate= 481.1kbits/s speed=1.19x    frame=  327 fps= 18 q=-1.0 size=    1266kB time=00:00:21.99 bitrate= 471.4kbits/s speed=1.18x    frame=  338 fps= 17 q=-1.0 size=    1282kB time=00:00:22.73 bitrate= 462.1kbits/s speed=1.17x    frame=  348 fps= 17 q=-1.0 size=    1295kB time=00:00:23.43 bitrate= 452.8kbits/s speed=1.17x    frame=  359 fps= 17 q=-1.0 size=    1311kB time=00:00:24.17 bitrate= 444.4kbits/s speed=1.17x    frame=  367 fps= 17 q=-1.0 size=    1324kB time=00:00:24.73 bitrate= 438.4kbits/s speed=1.16x    frame=  378 fps= 17 q=-1.0 size=    1335kB time=00:00:25.45 bitrate= 429.6kbits/s speed=1.15x    frame=  388 fps= 17 q=-1.0 size=    1344kB time=00:00:26.15 bitrate= 421.0kbits/s speed=1.15x    frame=  400 fps= 17 q=-1.0 size=    1356kB time=00:00:26.89 bitrate= 413.0kbits/s speed=1.14x    frame=  410 fps= 17 q=-1.0 size=    1371kB time=00:00:27.59 bitrate= 406.9kbits/s speed=1.14x    frame=  421 fps= 17 q=-1.0 size=    1385kB time=00:00:28.33 bitrate= 400.3kbits/s speed=1.13x    frame=  431 fps= 17 q=-1.0 size=    1401kB time=00:00:29.03 bitrate= 395.3kbits/s speed=1.13x    frame=  442 fps= 17 q=-1.0 size=    1418kB time=00:00:29.77 bitrate= 390.2kbits/s speed=1.13x    frame=  453 fps= 17 q=-1.0 size=    1454kB time=00:00:30.47 bitrate= 391.0kbits/s speed=1.12x    frame=  464 fps= 17 q=-1.0 size=    1479kB time=00:00:31.21 bitrate= 388.1kbits/s speed=1.12x    frame=  475 fps= 17 q=-1.0 size=    1490kB time=00:00:31.93 bitrate= 382.3kbits/s speed=1.12x    frame=  486 fps= 17 q=-1.0 size=    1499kB time=00:00:32.67 bitrate= 375.8kbits/s speed=1.11x    frame=  497 fps= 17 q=-1.0 size=    1514kB time=00:00:33.41 bitrate= 371.1kbits/s speed=1.11x    frame=  507 fps= 16 q=-1.0 size=    1524kB time=00:00:34.11 bitrate= 366.0kbits/s speed=1.11x    frame=  518 fps= 16 q=-1.0 size=    1536kB time=00:00:34.83 bitrate= 361.1kbits/s speed=1.11x    frame=  529 fps= 16 q=-1.0 size=    1545kB time=00:00:35.55 bitrate= 355.9kbits/s speed= 1.1x    frame=  540 fps= 16 q=-1.0 size=    1555kB time=00:00:36.29 bitrate= 351.0kbits/s speed= 1.1x    frame=  550 fps= 16 q=-1.0 size=    1582kB time=00:00:36.99 bitrate= 350.3kbits/s speed= 1.1x    frame=  562 fps= 16 q=-1.0 size=    1642kB time=00:00:37.71 bitrate= 356.7kbits/s speed= 1.1x    frame=  573 fps= 16 q=-1.0 size=    1701kB time=00:00:38.43 bitrate= 362.5kbits/s speed=1.09x    frame=  583 fps= 16 q=-1.0 size=    1759kB time=00:00:39.17 bitrate= 367.8kbits/s speed=1.09x    frame=  594 fps= 16 q=-1.0 size=    1818kB time=00:00:39.89 bitrate= 373.3kbits/s speed=1.09x    frame=  605 fps= 16 q=-1.0 size=    1875kB time=00:00:40.61 bitrate= 378.2kbits/s speed=1.09x    frame=  615 fps= 16 q=-1.0 size=    1920kB time=00:00:41.33 bitrate= 380.5kbits/s speed=1.09x    frame=  627 fps= 16 q=-1.0 size=    1977kB time=00:00:42.05 bitrate= 385.1kbits/s speed=1.09x    frame=  637 fps= 16 q=-1.0 size=    2029kB time=00:00:42.75 bitrate= 388.7kbits/s speed=1.08x    frame=  649 fps= 16 q=-1.0 size=    2098kB time=00:00:43.49 bitrate= 395.0kbits/s speed=1.08x    [flv @ 0x7fcb2660c040] Failed to update header with correct duration.
[flv @ 0x7fcb2660c040] Failed to update header with correct filesize.
frame=  654 fps= 16 q=-1.0 Lsize=    2122kB time=00:00:43.85 bitrate= 396.3kbits/s speed=1.08x    
video:1817kB audio:258kB subtitle:0kB other streams:0kB global headers:0kB muxing overhead: 2.274573%
Exiting normally, received signal 2.
